<svg xmlns="http://www.w3.org/2000/svg" version="1.1" xmlns:xlink="http://www.w3.org/1999/xlink" xmlns:svgjs="http://svgjs.dev/svgjs" width="2000" height="2000" viewBox="0 0 2000 2000"><g transform="matrix(1,0,0,1,-0.28443113772425477,-0.28443113772459583)"><svg viewBox="0 0 334 334" data-background-color="#ffffff" preserveAspectRatio="xMidYMid meet" height="2000" width="2000" xmlns="http://www.w3.org/2000/svg" xmlns:xlink="http://www.w3.org/1999/xlink"><g id="tight-bounds" transform="matrix(1,0,0,1,0.04749999999998522,0.04750000000001364)"><svg viewBox="0 0 333.90454557049503 333.90454557049503" height="333.90454557049503" width="333.90454557049503"><g><svg></svg></g><g><svg viewBox="0 0 333.90454557049503 333.90454557049503" height="333.90454557049503" width="333.90454557049503"><g><path d="M0 166.952c0-92.205 74.747-166.952 166.952-166.952 92.205 0 166.952 74.747 166.953 166.952 0 92.205-74.747 166.952-166.953 166.953-92.205 0-166.952-74.747-166.952-166.953zM166.952 316.63c82.665 0 149.677-67.013 149.678-149.678 0-82.665-67.013-149.677-149.678-149.677-82.665 0-149.677 67.013-149.677 149.677 0 82.665 67.013 149.677 149.677 149.678z" data-fill-palette-color="tertiary" fill="#ed2647" stroke="transparent"></path><ellipse rx="160.27418187383762" ry="160.27418187383762" cx="166.95227278524752" cy="166.95227278524752" fill="#ed2647" stroke="transparent" stroke-width="0" fill-opacity="1" data-fill-palette-color="tertiary"></ellipse></g><g transform="matrix(1,0,0,1,97.17405942964874,71.17305217166896)"><svg viewBox="0 0 139.55642671119756 191.55844122715712" height="191.55844122715712" width="139.55642671119756"><g><svg viewBox="0 0 139.55642671119756 191.55844122715712" height="191.55844122715712" width="139.55642671119756"><g><svg viewBox="0 0 139.55642671119756 191.55844122715712" height="191.55844122715712" width="139.55642671119756"><g><svg viewBox="0 0 139.55642671119756 191.55844122715712" height="191.55844122715712" width="139.55642671119756"><g><svg viewBox="0 0 139.55642671119756 191.55844122715712" height="191.55844122715712" width="139.55642671119756"><g><svg viewBox="0 0 139.55642671119756 191.55844122715712" height="191.55844122715712" width="139.55642671119756"><g transform="matrix(1,0,0,1,0,0)"><svg width="139.55642671119756" viewBox="2.5999999046325684 -35.5 26.299999237060547 36.099998474121094" height="191.55844122715712" data-palette-color="#001f3f"><path d="M15.95 0.6L15.95 0.6Q14.45 0.6 13.23 0.28 12-0.05 11.08-0.58 10.15-1.1 9.53-1.73 8.9-2.35 8.6-2.9L8.6-2.9 8.4-2.9 8.4 0 2.6 0 2.6-10.2 8.4-10.2 8.4-8.05Q8.4-5.35 10.3-4.23 12.2-3.1 15.5-3.1L15.5-3.1Q18.95-3.1 20.63-4.5 22.3-5.9 22.3-8.15L22.3-8.15Q22.3-9.25 22.03-10.05 21.75-10.85 21.1-11.43 20.45-12 19.35-12.43 18.25-12.85 16.6-13.2L16.6-13.2 14.35-13.7Q11.8-14.2 9.68-15.08 7.55-15.95 6.05-17.35 4.55-18.75 3.73-20.7 2.9-22.65 2.9-25.3L2.9-25.3Q2.9-27.55 3.7-29.43 4.5-31.3 6-32.65 7.5-34 9.73-34.75 11.95-35.5 14.8-35.5L14.8-35.5Q16.35-35.5 17.57-35.18 18.8-34.85 19.73-34.35 20.65-33.85 21.25-33.23 21.85-32.6 22.15-32.05L22.15-32.05 22.35-32.05 22.35-34.9 28.15-34.9 28.15-24.7 22.35-24.7 22.35-26.9Q22.35-29.55 20.5-30.68 18.65-31.8 15.7-31.8L15.7-31.8Q12.3-31.8 10.73-30.38 9.15-28.95 9.15-26.95L9.15-26.95Q9.15-25.8 9.5-25 9.85-24.2 10.63-23.6 11.4-23 12.65-22.58 13.9-22.15 15.7-21.75L15.7-21.75 17.8-21.35Q20.4-20.8 22.48-19.93 24.55-19.05 25.98-17.7 27.4-16.35 28.15-14.53 28.9-12.7 28.9-10.3L28.9-10.3Q28.9-7.95 28-5.95 27.1-3.95 25.43-2.5 23.75-1.05 21.35-0.23 18.95 0.6 15.95 0.6Z" opacity="1" transform="matrix(1,0,0,1,0,0)" fill="#001f3f" class="undefined-text-0" data-fill-palette-color="quaternary" id="text-0"></path></svg></g></svg></g></svg></g></svg></g><g></g></svg></g></svg></g></svg></g></svg></g><defs></defs></svg><rect width="333.90454557049503" height="333.90454557049503" fill="none" stroke="none" visibility="hidden"></rect></g></svg></g></svg>